PathFileType	4	(X/Y/Z)	G:\GRF\jawan data\CompiledGRF\03. Mohit Kumar\0231~ac~Walking 01_markers.trc
DataRate	CameraRate	NumFrames	NumMarkers	Units	OrigDataRate	OrigDataStartFrame	OrigNumFrames
100.000000	100.000000	22	18	mm	100.000000	0	805
Frame#	Time	c7			r should			l should			sacrum			r asis			r bar 1			r knee 1			r bar 2			r mall			r heel			r met			l asis			l bar 1			l knee 1			l bar 2			l mall			l heel			l met			
		X1	Y1	Z1	X2	Y2	Z2	X3	Y3	Z3	X4	Y4	Z4	X5	Y5	Z5	X6	Y6	Z6	X7	Y7	Z7	X8	Y8	Z8	X9	Y9	Z9	X10	Y10	Z10	X11	Y11	Z11	X12	Y12	Z12	X13	Y13	Z13	X14	Y14	Z14	X15	Y15	Z15	X16	Y16	Z16	X17	Y17	Z17	X18	Y18	Z18	

1	0	-2256.21923828125	1530.688110351563	250.7252349853516	-2173.966552734375	1464.595336914063	419.9970397949219	-2168.284423828125	1483.7294921875	81.3773193359375	nan	nan	nan	nan	nan	nan	nan	nan	nan	nan	nan	nan	nan	nan	nan	nan	nan	nan	nan	nan	nan	nan	nan	nan	nan	nan	nan	nan	nan	nan	nan	nan	nan	nan	nan	nan	nan	nan	nan	nan	nan	nan	nan	nan	nan	
2	0.01	-2255.9501953125	1530.689453125	250.7695617675781	-2173.819580078125	1464.603271484375	420.1202392578125	-2167.899169921875	1483.737915039063	81.51840209960938	nan	nan	nan	nan	nan	nan	nan	nan	nan	nan	nan	nan	nan	nan	nan	nan	nan	nan	nan	nan	nan	nan	nan	nan	nan	nan	nan	nan	nan	nan	nan	nan	nan	nan	nan	nan	nan	nan	nan	nan	nan	nan	nan	nan	nan	
3	0.02	-2255.768798828125	1530.723999023438	250.8122253417969	-2173.7607421875	1464.637084960938	420.2095947265625	-2167.6455078125	1483.748901367188	81.60422515869141	nan	nan	nan	nan	nan	nan	nan	nan	nan	nan	nan	nan	nan	nan	nan	nan	nan	nan	nan	nan	nan	nan	nan	nan	nan	nan	nan	nan	nan	nan	nan	nan	nan	nan	nan	nan	nan	nan	nan	nan	nan	nan	nan	nan	nan	
4	0.03	-2255.55810546875	1530.753051757813	250.8332061767578	-2173.65771484375	1464.667602539063	420.2681884765625	-2167.452392578125	1483.758178710938	81.67082977294922	nan	nan	nan	nan	nan	nan	nan	nan	nan	nan	nan	nan	nan	nan	nan	nan	nan	nan	nan	nan	nan	nan	nan	nan	nan	nan	nan	nan	nan	nan	nan	nan	nan	nan	nan	nan	nan	nan	nan	nan	nan	nan	nan	nan	nan	
5	0.04	-2255.381591796875	1530.778442382813	250.8545532226563	-2173.591552734375	1464.7197265625	420.3334655761719	-2167.23291015625	1483.75390625	81.71953582763672	nan	nan	nan	nan	nan	nan	nan	nan	nan	nan	nan	nan	nan	nan	nan	nan	nan	nan	nan	nan	nan	nan	nan	nan	nan	nan	nan	nan	nan	nan	nan	nan	nan	nan	nan	nan	nan	nan	nan	nan	nan	nan	nan	nan	nan	
6	0.05	-2255.19873046875	1530.805786132813	250.8929443359375	-2173.47021484375	1464.75146484375	420.4016418457031	-2167.024658203125	1483.75537109375	81.77615356445313	nan	nan	nan	nan	nan	nan	nan	nan	nan	nan	nan	nan	nan	nan	nan	nan	nan	nan	nan	nan	nan	nan	nan	nan	nan	nan	nan	nan	nan	nan	nan	nan	nan	nan	nan	nan	nan	nan	nan	nan	nan	nan	nan	nan	nan	
7	0.06	-2254.982177734375	1530.840576171875	250.9276885986328	-2173.275634765625	1464.77001953125	420.4599914550781	-2166.825439453125	1483.751953125	81.82274627685547	nan	nan	nan	nan	nan	nan	nan	nan	nan	nan	nan	nan	nan	nan	nan	nan	nan	nan	nan	nan	nan	nan	nan	nan	nan	nan	nan	nan	nan	nan	nan	nan	nan	nan	nan	nan	nan	nan	nan	nan	nan	nan	nan	nan	nan	
8	0.07000000000000001	-2254.783203125	1530.857543945313	250.9703063964844	-2173.075439453125	1464.7705078125	420.5011291503906	-2166.612060546875	1483.730834960938	81.86832427978516	nan	nan	nan	nan	nan	nan	nan	nan	nan	nan	nan	nan	nan	nan	nan	nan	nan	nan	nan	nan	nan	nan	nan	nan	nan	nan	nan	nan	nan	nan	nan	nan	nan	nan	nan	nan	nan	nan	nan	nan	nan	nan	nan	nan	nan	
9	0.08	-2254.580810546875	1530.876586914063	251.0052642822266	-2172.93798828125	1464.801513671875	420.5497131347656	-2166.442138671875	1483.722534179688	81.92562866210938	nan	nan	nan	nan	nan	nan	nan	nan	nan	nan	nan	nan	nan	nan	nan	nan	nan	nan	nan	nan	nan	nan	nan	nan	nan	nan	nan	nan	nan	nan	nan	nan	nan	nan	nan	nan	nan	nan	nan	nan	nan	nan	nan	nan	nan	
10	0.09	-2254.361572265625	1530.88427734375	251.0463256835938	-2172.806396484375	1464.849975585938	420.6192626953125	-2166.232177734375	1483.710205078125	81.97820281982422	nan	nan	nan	nan	nan	nan	nan	nan	nan	nan	nan	nan	nan	nan	nan	nan	nan	nan	nan	nan	nan	nan	nan	nan	nan	nan	nan	nan	nan	nan	nan	nan	nan	nan	nan	nan	nan	nan	nan	nan	nan	nan	nan	nan	nan	
11	0.1	-2254.145263671875	1530.901245117188	251.0788726806641	-2172.59228515625	1464.864135742188	420.665283203125	-2166.060791015625	1483.71435546875	82.04267120361328	nan	nan	nan	nan	nan	nan	nan	nan	nan	nan	nan	nan	nan	nan	nan	nan	nan	nan	nan	nan	nan	nan	nan	nan	nan	nan	nan	nan	nan	nan	nan	nan	nan	nan	nan	nan	nan	nan	nan	nan	nan	nan	nan	nan	nan	
12	0.11	-2253.997314453125	1530.922607421875	251.1373748779297	-2172.42724609375	1464.883544921875	420.708251953125	-2165.89208984375	1483.692993164063	82.12398529052734	nan	nan	nan	nan	nan	nan	nan	nan	nan	nan	nan	nan	nan	nan	nan	nan	nan	nan	nan	nan	nan	nan	nan	nan	nan	nan	nan	nan	nan	nan	nan	nan	nan	nan	nan	nan	nan	nan	nan	nan	nan	nan	nan	nan	nan	
13	0.12	-2253.854736328125	1530.961303710938	251.1873168945313	-2172.2431640625	1464.88818359375	420.7596740722656	-2165.7021484375	1483.678955078125	82.19970703125	nan	nan	nan	nan	nan	nan	nan	nan	nan	nan	nan	nan	nan	nan	nan	nan	nan	nan	nan	nan	nan	nan	nan	nan	nan	nan	nan	nan	nan	nan	nan	nan	nan	nan	nan	nan	nan	nan	nan	nan	nan	nan	nan	nan	nan	
14	0.13	-2253.717529296875	1530.9931640625	251.2359008789063	-2172.08740234375	1464.907348632813	420.8250732421875	-2165.5625	1483.683959960938	82.26483917236328	nan	nan	nan	nan	nan	nan	nan	nan	nan	nan	nan	nan	nan	nan	nan	nan	nan	nan	nan	nan	nan	nan	nan	nan	nan	nan	nan	nan	nan	nan	nan	nan	nan	nan	nan	nan	nan	nan	nan	nan	nan	nan	nan	nan	nan	
15	0.14	-2253.5859375	1531.018676757813	251.2972717285156	-2171.929931640625	1464.904907226563	420.8863830566406	-2165.43359375	1483.6875	82.31435394287109	nan	nan	nan	nan	nan	nan	nan	nan	nan	nan	nan	nan	nan	nan	nan	nan	nan	nan	nan	nan	nan	nan	nan	nan	nan	nan	nan	nan	nan	nan	nan	nan	nan	nan	nan	nan	nan	nan	nan	nan	nan	nan	nan	nan	nan	
16	0.15	-2253.43896484375	1531.041381835938	251.3672943115234	-2171.783447265625	1464.905029296875	420.94482421875	-2165.292236328125	1483.681274414063	82.36192321777344	nan	nan	nan	nan	nan	nan	nan	nan	nan	nan	nan	nan	nan	nan	nan	nan	nan	nan	nan	nan	nan	nan	nan	nan	nan	nan	nan	nan	nan	nan	nan	nan	nan	nan	nan	nan	nan	nan	nan	nan	nan	nan	nan	nan	nan	
17	0.16	-2253.30615234375	1531.062866210938	251.4304504394531	-2171.635498046875	1464.916748046875	421.0119018554688	-2165.14013671875	1483.67919921875	82.40713500976563	nan	nan	nan	nan	nan	nan	nan	nan	nan	nan	nan	nan	nan	nan	nan	nan	nan	nan	nan	nan	nan	nan	nan	nan	nan	nan	nan	nan	nan	nan	nan	nan	nan	nan	nan	nan	nan	nan	nan	nan	nan	nan	nan	nan	nan	
18	0.17	-2253.1787109375	1531.086181640625	251.4922332763672	-2171.4560546875	1464.928833007813	421.0704040527344	-2165.01318359375	1483.676879882813	82.46454620361328	nan	nan	nan	nan	nan	nan	nan	nan	nan	nan	nan	nan	nan	nan	nan	nan	nan	nan	nan	nan	nan	nan	nan	nan	nan	nan	nan	nan	nan	nan	nan	nan	nan	nan	nan	nan	nan	nan	nan	nan	nan	nan	nan	nan	nan	
19	0.18	-2253.0517578125	1531.093872070313	251.569091796875	-2171.334228515625	1464.94189453125	421.1394653320313	-2164.889404296875	1483.674072265625	82.54129028320313	nan	nan	nan	nan	nan	nan	nan	nan	nan	nan	nan	nan	nan	nan	nan	nan	nan	nan	nan	nan	nan	nan	nan	nan	nan	nan	nan	nan	nan	nan	nan	nan	nan	nan	nan	nan	nan	nan	nan	nan	nan	nan	nan	nan	nan	
20	0.19	-2252.906982421875	1531.105834960938	251.6508941650391	-2171.210205078125	1464.945190429688	421.2135314941406	-2164.799560546875	1483.68505859375	82.62350463867188	nan	nan	nan	nan	nan	nan	nan	nan	nan	nan	nan	nan	nan	nan	nan	nan	nan	nan	nan	nan	nan	nan	nan	nan	nan	nan	nan	nan	nan	nan	nan	nan	nan	nan	nan	nan	nan	nan	nan	nan	nan	nan	nan	nan	nan	
21	0.2	-2252.836181640625	1531.133178710938	251.7316589355469	-2171.127197265625	1464.984130859375	421.2972412109375	-2164.69921875	1483.700317382813	82.69969940185547	nan	nan	nan	nan	nan	nan	nan	nan	nan	nan	nan	nan	nan	nan	nan	nan	nan	nan	nan	nan	nan	nan	nan	nan	nan	nan	nan	nan	nan	nan	nan	nan	nan	nan	nan	nan	nan	nan	nan	nan	nan	nan	nan	nan	nan	
22	0.21	-2252.75146484375	1531.143188476563	251.8145446777344	-2171.0244140625	1465.011108398438	421.3890380859375	-2164.614501953125	1483.691040039063	82.78357696533203	nan	nan	nan	nan	nan	nan	nan	nan	nan	nan	nan	nan	nan	nan	nan	nan	nan	nan	nan	nan	nan	nan	nan	nan	nan	nan	nan	nan	nan	nan	nan	nan	nan	nan	nan	nan	nan	nan	nan	nan	nan	nan	nan	nan	nan	
